# xmcd
#
# Track frame offsets: 
#        150
#        19212
#        38275
#
# Disc length: 762 seconds
#
# Revision: 0
# Processed by: cddbd v1.5PL3 Copyright (c) Steve Scherf et al.
# Submitted via: ExactAudioCopy v0.95a5
#
DISCID=1502f803
DTITLE=Tracy Byrd - Walking To Jerusalem [CDS)
DYEAR=1995
DGENRE=Country
TTITLE0=Walking To Jerusalem
TTITLE1=Walking To Jerusalem
TTITLE2=Walking To Jerusalem
EXTD=
EXTT0=
EXTT1=
EXTT2=
PLAYORDER=
